TITLE ""
FILE "2Q_t_0018-0035.mp3" MP3
  TRACK 01 AUDIO
    TITLE "2Q_t_0018-0035_01"
    INDEX 01 00:00:00
  TRACK 02 AUDIO
    TITLE "2Q_t_0018-0035_02"
    INDEX 01 00:01:04
  TRACK 03 AUDIO
    TITLE "2Q_t_0018-0035_03"
    INDEX 01 00:01:49
  TRACK 04 AUDIO
    TITLE "2Q_t_0018-0035_04"
    INDEX 01 00:05:53
  TRACK 05 AUDIO
    TITLE "2Q_t_0018-0035_05"
    INDEX 01 00:06:23
  TRACK 06 AUDIO
    TITLE "2Q_t_0018-0035_06"
    INDEX 01 00:07:38
  TRACK 07 AUDIO
    TITLE "2Q_t_0018-0035_07"
    INDEX 01 00:08:08
  TRACK 08 AUDIO
    TITLE "2Q_t_0018-0035_08"
    INDEX 01 00:09:45
  TRACK 09 AUDIO
    TITLE "2Q_t_0018-0035_09"
    INDEX 01 00:10:13
  TRACK 10 AUDIO
    TITLE "2Q_t_0018-0035_10"
    INDEX 01 00:11:20
  TRACK 11 AUDIO
    TITLE "2Q_t_0018-0035_11"
    INDEX 01 00:11:65
  TRACK 12 AUDIO
    TITLE "2Q_t_0018-0035_12"
    INDEX 01 00:13:21
  TRACK 13 AUDIO
    TITLE "2Q_t_0018-0035_13"
    INDEX 01 00:13:66
  TRACK 14 AUDIO
    TITLE "2Q_t_0018-0035_14"
    INDEX 01 00:15:04
  TRACK 15 AUDIO
    TITLE "2Q_t_0018-0035_15"
    INDEX 01 00:15:53
  TRACK 16 AUDIO
    TITLE "2Q_t_0018-0035_16"
    INDEX 01 00:17:05
  TRACK 17 AUDIO
    TITLE "2Q_t_0018-0035_17"
    INDEX 01 00:17:50
  TRACK 18 AUDIO
    TITLE "2Q_t_0018-0035_18"
    INDEX 01 00:18:51
  TRACK 19 AUDIO
    TITLE "2Q_t_0018-0035_19"
    INDEX 01 00:19:25
  TRACK 20 AUDIO
    TITLE "2Q_t_0018-0035_20"
    INDEX 01 00:22:12
  TRACK 21 AUDIO
    TITLE "2Q_t_0018-0035_21"
    INDEX 01 00:22:57
  TRACK 22 AUDIO
    TITLE "2Q_t_0018-0035_22"
    INDEX 01 00:24:11
  TRACK 23 AUDIO
    TITLE "2Q_t_0018-0035_23"
    INDEX 01 00:24:58
  TRACK 24 AUDIO
    TITLE "2Q_t_0018-0035_24"
    INDEX 01 00:27:74
  TRACK 25 AUDIO
    TITLE "2Q_t_0018-0035_25"
    INDEX 01 00:28:44
  TRACK 26 AUDIO
    TITLE "2Q_t_0018-0035_26"
    INDEX 01 00:29:61
  TRACK 27 AUDIO
    TITLE "2Q_t_0018-0035_27"
    INDEX 01 00:30:31
  TRACK 28 AUDIO
    TITLE "2Q_t_0018-0035_28"
    INDEX 01 00:32:24
  TRACK 29 AUDIO
    TITLE "2Q_t_0018-0035_29"
    INDEX 01 00:32:69
  TRACK 30 AUDIO
    TITLE "2Q_t_0018-0035_30"
    INDEX 01 00:34:21
  TRACK 31 AUDIO
    TITLE "2Q_t_0018-0035_31"
    INDEX 01 00:34:66
  TRACK 32 AUDIO
    TITLE "2Q_t_0018-0035_32"
    INDEX 01 00:37:70
  TRACK 33 AUDIO
    TITLE "2Q_t_0018-0035_33"
    INDEX 01 00:38:38
  TRACK 34 AUDIO
    TITLE "2Q_t_0018-0035_34"
    INDEX 01 00:39:63
  TRACK 35 AUDIO
    TITLE "2Q_t_0018-0035_35"
    INDEX 01 00:40:35
  TRACK 36 AUDIO
    TITLE "2Q_t_0018-0035_36"
    INDEX 01 00:41:74
  TRACK 37 AUDIO
    TITLE "2Q_t_0018-0035_37"
    INDEX 01 00:42:44
  TRACK 38 AUDIO
    TITLE "2Q_t_0018-0035_38"
    INDEX 01 00:43:63
  TRACK 39 AUDIO
    TITLE "2Q_t_0018-0035_39"
    INDEX 01 00:44:33
  TRACK 40 AUDIO
    TITLE "2Q_t_0018-0035_40"
    INDEX 01 00:45:66
  TRACK 41 AUDIO
    TITLE "2Q_t_0018-0035_41"
    INDEX 01 00:46:36
  TRACK 42 AUDIO
    TITLE "2Q_t_0018-0035_42"
    INDEX 01 00:47:39
  TRACK 43 AUDIO
    TITLE "2Q_t_0018-0035_43"
    INDEX 01 00:48:11
  TRACK 44 AUDIO
    TITLE "2Q_t_0018-0035_44"
    INDEX 01 00:50:67
  TRACK 45 AUDIO
    TITLE "2Q_t_0018-0035_45"
    INDEX 01 00:51:37
  TRACK 46 AUDIO
    TITLE "2Q_t_0018-0035_46"
    INDEX 01 00:52:42
  TRACK 47 AUDIO
    TITLE "2Q_t_0018-0035_47"
    INDEX 01 00:53:12
  TRACK 48 AUDIO
    TITLE "2Q_t_0018-0035_48"
    INDEX 01 00:58:33
  TRACK 49 AUDIO
    TITLE "2Q_t_0018-0035_49"
    INDEX 01 00:59:03
  TRACK 50 AUDIO
    TITLE "2Q_t_0018-0035_50"
    INDEX 01 01:00:07
  TRACK 51 AUDIO
    TITLE "2Q_t_0018-0035_51"
    INDEX 01 01:00:54
  TRACK 52 AUDIO
    TITLE "2Q_t_0018-0035_52"
    INDEX 01 01:05:51
  TRACK 53 AUDIO
    TITLE "2Q_t_0018-0035_53"
    INDEX 01 01:06:21
  TRACK 54 AUDIO
    TITLE "2Q_t_0018-0035_54"
    INDEX 01 01:07:40
  TRACK 55 AUDIO
    TITLE "2Q_t_0018-0035_55"
    INDEX 01 01:08:12
  TRACK 56 AUDIO
    TITLE "2Q_t_0018-0035_56"
    INDEX 01 01:11:63
  TRACK 57 AUDIO
    TITLE "2Q_t_0018-0035_57"
    INDEX 01 01:12:31
  TRACK 58 AUDIO
    TITLE "2Q_t_0018-0035_58"
    INDEX 01 01:13:64
  TRACK 59 AUDIO
    TITLE "2Q_t_0018-0035_59"
    INDEX 01 01:14:34
  TRACK 60 AUDIO
    TITLE "2Q_t_0018-0035_60"
    INDEX 01 01:17:27
  TRACK 61 AUDIO
    TITLE "2Q_t_0018-0035_61"
    INDEX 01 01:17:72
  TRACK 62 AUDIO
    TITLE "2Q_t_0018-0035_62"
    INDEX 01 01:19:12
  TRACK 63 AUDIO
    TITLE "2Q_t_0018-0035_63"
    INDEX 01 01:19:59
  TRACK 64 AUDIO
    TITLE "2Q_t_0018-0035_64"
    INDEX 01 01:22:43
  TRACK 65 AUDIO
    TITLE "2Q_t_0018-0035_65"
    INDEX 01 01:23:12
  TRACK 66 AUDIO
    TITLE "2Q_t_0018-0035_66"
    INDEX 01 01:24:27
  TRACK 67 AUDIO
    TITLE "2Q_t_0018-0035_67"
    INDEX 01 01:24:72
  TRACK 68 AUDIO
    TITLE "2Q_t_0018-0035_68"
    INDEX 01 01:28:44
  TRACK 69 AUDIO
    TITLE "2Q_t_0018-0035_69"
    INDEX 01 01:29:14
  TRACK 70 AUDIO
    TITLE "2Q_t_0018-0035_70"
    INDEX 01 01:30:18
  TRACK 71 AUDIO
    TITLE "2Q_t_0018-0035_71"
    INDEX 01 01:30:66
  TRACK 72 AUDIO
    TITLE "2Q_t_0018-0035_72"
    INDEX 01 01:33:43
